<svg width="101" height="105" viewBox="0 0 101 105" fill="none" xmlns="http://www.w3.org/2000/svg">
<path d="M62.0189 105H78.1003C92.8659 105 105 92.8659 105 78.1003V26.8997C105 12.1341 92.8659 0 78.1003 0H61.6941C61.3692 0 61.028 0.324844 61.028 0.649687V104.35C61.028 104.675 61.3528 105 62.0189 105ZM82.0312 47.2533C87.9441 47.2533 92.5247 52.1752 92.5247 57.7467C92.5247 63.6595 87.6028 68.2402 82.0312 68.2402C76.1184 68.2402 71.5378 63.6595 71.5378 57.7467C71.1966 51.8503 76.1184 47.2533 82.0312 47.2533ZM49.8684 0H26.8997C12.1341 0 0 12.1341 0 26.8997V78.1003C0 92.8659 12.1341 105 26.8997 105H49.8684C50.1933 105 50.5345 104.675 50.5345 104.35V0.649687C50.5345 0.324844 50.2097 0 49.8684 0ZM42.3314 96.472H26.8997C24.486 96.4759 22.0953 96.0034 19.8645 95.0815C17.6338 94.1596 15.607 92.8065 13.9002 91.0998C12.1935 89.393 10.8404 87.3662 9.91851 85.1355C8.99662 82.9048 8.52408 80.514 8.52797 78.1003V26.8997C8.52408 24.486 8.99662 22.0953 9.91851 19.8645C10.8404 17.6338 12.1935 15.607 13.9002 13.9002C15.607 12.1935 17.6338 10.8404 19.8645 9.91851C22.0953 8.99662 24.486 8.52408 26.8997 8.52797H42.0066L42.3314 96.472ZM16.4062 31.4967C16.4062 37.0683 20.6784 41.3405 26.25 41.3405C31.8216 41.3405 36.0938 37.0683 36.0938 31.4967C36.0938 25.9252 31.8216 21.653 26.25 21.653C20.6784 21.653 16.4062 25.9252 16.4062 31.4967Z" fill="white"/>
</svg>
