<svg width="127" height="103" viewBox="0 0 127 103" fill="none" xmlns="http://www.w3.org/2000/svg">
<path d="M111.69 86.8019L71.4285 103V91.1297L107.85 77.7755C109.832 76.8688 110.885 75.8589 111.009 74.7461C111.133 73.6333 110.266 72.7471 108.407 72.0876C106.549 71.4282 104.278 71.1809 101.594 71.3457C98.9097 71.5106 96.5353 72.0464 94.4706 72.9532L71.4285 79.2593V67.389C77.54 64.6687 86.7899 63.3497 99.1781 63.4322C102.482 63.4322 104.877 63.4528 106.363 63.494C107.85 63.5352 109.729 63.7413 112 64.1122C114.271 64.4832 116.356 65.0808 118.256 65.9052C121.89 67.3065 124.388 68.8315 125.751 70.4802C127.114 72.1289 127.361 73.8393 126.494 75.6116C125.627 77.384 123.975 79.1769 121.539 80.9904C119.103 82.8039 115.82 84.7411 111.69 86.8019ZM87.2854 55.5186C85.551 55.5186 84.2296 55.498 83.3212 55.4568C82.4127 55.4156 81.2152 55.3331 79.7286 55.2095C78.242 55.0858 77.1064 54.8385 76.3218 54.4676C75.5372 54.0966 74.7113 53.6433 73.8442 53.1074C72.977 52.5716 72.3576 51.8297 71.9859 50.8818C71.6143 49.9338 71.4285 48.8415 71.4285 47.605V19.7839C71.4285 18.7123 71.0362 17.7849 70.2516 17.0018C69.467 16.2187 68.5379 15.8271 67.4642 15.8271C66.3906 15.8271 65.4615 16.2187 64.6769 17.0018C63.8923 17.7849 63.5 18.7123 63.5 19.7839V103L47.6431 95.0864V0L63.5 6.05882C65.4821 7.21289 68.1249 8.4906 71.4285 9.89196C78.4485 12.942 84.1677 17.043 88.5862 22.1951C93.0046 27.3471 95.2139 33.1793 95.2139 39.6915V43.6483C95.2139 44.8023 95.1932 45.7297 95.1519 46.4304C95.1106 47.1311 94.9661 48.1203 94.7183 49.398C94.4706 50.6757 94.0783 51.7061 93.5415 52.4892C93.0046 53.2723 92.1994 53.973 91.1258 54.5912C90.0521 55.2095 88.772 55.5186 87.2854 55.5186ZM8.74403 88.6567C5.11015 87.2553 2.61185 85.7303 1.24915 84.0816C-0.113559 82.433 -0.361323 80.7225 0.505853 78.9502C1.37303 77.1779 3.02479 75.3643 5.46114 73.5096C7.8975 71.6549 11.1804 69.6971 15.3098 67.6363L39.7146 57.868V69.2437L19.1501 76.7863C16.6725 78.3525 15.6401 79.8157 16.0531 81.1759C16.466 82.536 17.7461 83.2161 19.8934 83.2161C21.8755 83.2161 24.5184 82.907 27.8219 82.2887C31.1254 81.6705 33.9334 81.0728 36.2459 80.4958L39.7146 79.6303V90.6351C35.9981 90.9648 32.0339 91.1297 27.8219 91.1297C24.5184 91.1297 22.1233 91.0884 20.6367 91.006C19.1501 90.9236 17.2713 90.6969 15.0001 90.3259C12.7289 89.955 10.6436 89.3986 8.74403 88.6567Z" fill="white"/>
</svg>
