<svg width="108" height="108" viewBox="0 0 108 108" fill="none" xmlns="http://www.w3.org/2000/svg">
<g clip-path="url(#clip0)">
<path d="M18.4581 94.6384C28.2823 103.273 40.9208 108.024 54.0003 108C67.6218 108 80.0519 102.975 89.5593 94.6384C97.9968 86.0423 70.1361 55.458 54.0003 43.2743C37.8813 55.4546 10.0038 86.0423 18.4581 94.6384ZM68.6781 29.8316C79.927 43.1561 102.357 76.2345 96.0291 87.9255C103.795 78.3325 108.022 66.359 108 54.0169C108 38.988 101.868 25.3834 91.9353 15.6094C91.9353 15.6094 91.8104 15.5014 91.5674 15.417C91.1595 15.2766 90.7295 15.2114 90.2984 15.2246C87.649 15.2246 81.3715 17.172 68.6815 29.8316H68.6781ZM16.4331 15.417C16.1901 15.5014 16.0653 15.6094 16.045 15.6094C10.9519 20.6235 6.90943 26.6027 4.15394 33.1973C1.39845 39.792 -0.0147659 46.8697 -0.00310222 54.0169C-0.00310222 66.8655 4.4789 78.6442 11.968 87.9053C5.67702 76.2008 28.0701 43.1359 39.3359 29.8283C26.6459 17.1518 20.3515 15.2213 17.6988 15.2213C17.2654 15.2008 16.8328 15.2733 16.4298 15.4339L16.4331 15.417ZM54.0003 15.9806C54.0003 15.9806 40.7467 8.22825 30.3921 7.857C26.332 7.71863 23.8548 9.17662 23.551 9.38587C33.2035 2.9025 43.4669 0 53.926 0H53.9969C64.51 0 74.7194 2.9025 84.4428 9.38587C84.1424 9.17325 81.6786 7.71525 77.6016 7.857C67.2471 8.22488 53.9935 15.9604 53.9935 15.9604L54.0003 15.9806Z" fill="white"/>
</g>
<defs>
<clipPath id="clip0">
<rect width="108" height="108" fill="white"/>
</clipPath>
</defs>
</svg>
